<svg width="128" height="128" viewBox="0 0 128 128" fill="none" xmlns="http://www.w3.org/2000/svg">
  <!-- Background Circle -->
  <circle cx="64" cy="64" r="64" fill="url(#gradient)"/>

  <!-- Message Bubble -->
  <path d="M40 45C40 39.4772 44.4772 35 50 35H78C83.5228 35 88 39.4772 88 45V65C88 70.5228 83.5228 75 78 75H58L45 85V75H50C44.4772 75 40 70.5228 40 65V45Z" fill="white"/>

  <!-- Vapor/Smoke Effect -->
  <g opacity="0.8">
    <ellipse cx="50" cy="30" rx="8" ry="12" fill="white" opacity="0.3">
      <animate attributeName="cy" values="30;20;30" dur="3s" repeatCount="indefinite"/>
      <animate attributeName="opacity" values="0.3;0.6;0.3" dur="3s" repeatCount="indefinite"/>
    </ellipse>
    <ellipse cx="64" cy="25" rx="10" ry="14" fill="white" opacity="0.4">
      <animate attributeName="cy" values="25;15;25" dur="3.5s" repeatCount="indefinite"/>
      <animate attributeName="opacity" values="0.4;0.7;0.4" dur="3.5s" repeatCount="indefinite"/>
    </ellipse>
    <ellipse cx="78" cy="28" rx="9" ry="13" fill="white" opacity="0.35">
      <animate attributeName="cy" values="28;18;28" dur="3.2s" repeatCount="indefinite"/>
      <animate attributeName="opacity" values="0.35;0.65;0.35" dur="3.2s" repeatCount="indefinite"/>
    </ellipse>
  </g>

  <!-- Notification Dot -->
  <circle cx="85" cy="40" r="10" fill="#EF4444"/>
  <circle cx="85" cy="40" r="10" fill="#EF4444">
    <animate attributeName="r" values="10;12;10" dur="1.5s" repeatCount="indefinite"/>
    <animate attributeName="opacity" values="1;0.7;1" dur="1.5s" repeatCount="indefinite"/>
  </circle>

  <!-- Message Lines -->
  <rect x="50" y="50" width="28" height="3" rx="1.5" fill="#8B5CF6"/>
  <rect x="50" y="58" width="20" height="3" rx="1.5" fill="#A78BFA"/>

  <!-- Gradient Definition -->
  <defs>
    <linearGradient id="gradient" x1="0" y1="0" x2="128" y2="128" gradientUnits="userSpaceOnUse">
      <stop offset="0%" stop-color="#8B5CF6"/>
      <stop offset="50%" stop-color="#A78BFA"/>
      <stop offset="100%" stop-color="#C4B5FD"/>
    </linearGradient>
  </defs>
</svg>
